<svg xmlns="http://www.w3.org/2000/svg" width="1024" height="1024" viewBox="0 0 1024 1024">
  <rect width="1024" height="1024" fill="#232a1f" />
  <g><line x1="0" y1="0" x2="0" y2="1024" stroke="#2f3826" stroke-width="1" /><line x1="0" y1="0" x2="1024" y2="0" stroke="#2f3826" stroke-width="1" /><line x1="64" y1="0" x2="64" y2="1024" stroke="#2f3826" stroke-width="1" /><line x1="0" y1="64" x2="1024" y2="64" stroke="#2f3826" stroke-width="1" /><line x1="128" y1="0" x2="128" y2="1024" stroke="#2f3826" stroke-width="1" /><line x1="0" y1="128" x2="1024" y2="128" stroke="#2f3826" stroke-width="1" /><line x1="192" y1="0" x2="192" y2="1024" stroke="#2f3826" stroke-width="1" /><line x1="0" y1="192" x2="1024" y2="192" stroke="#2f3826" stroke-width="1" /><line x1="256" y1="0" x2="256" y2="1024" stroke="#2f3826" stroke-width="1" /><line x1="0" y1="256" x2="1024" y2="256" stroke="#2f3826" stroke-width="1" /><line x1="320" y1="0" x2="320" y2="1024" stroke="#2f3826" stroke-width="1" /><line x1="0" y1="320" x2="1024" y2="320" stroke="#2f3826" stroke-width="1" /><line x1="384" y1="0" x2="384" y2="1024" stroke="#2f3826" stroke-width="1" /><line x1="0" y1="384" x2="1024" y2="384" stroke="#2f3826" stroke-width="1" /><line x1="448" y1="0" x2="448" y2="1024" stroke="#2f3826" stroke-width="1" /><line x1="0" y1="448" x2="1024" y2="448" stroke="#2f3826" stroke-width="1" /><line x1="512" y1="0" x2="512" y2="1024" stroke="#2f3826" stroke-width="1" /><line x1="0" y1="512" x2="1024" y2="512" stroke="#2f3826" stroke-width="1" /><line x1="576" y1="0" x2="576" y2="1024" stroke="#2f3826" stroke-width="1" /><line x1="0" y1="576" x2="1024" y2="576" stroke="#2f3826" stroke-width="1" /><line x1="640" y1="0" x2="640" y2="1024" stroke="#2f3826" stroke-width="1" /><line x1="0" y1="640" x2="1024" y2="640" stroke="#2f3826" stroke-width="1" /><line x1="704" y1="0" x2="704" y2="1024" stroke="#2f3826" stroke-width="1" /><line x1="0" y1="704" x2="1024" y2="704" stroke="#2f3826" stroke-width="1" /><line x1="768" y1="0" x2="768" y2="1024" stroke="#2f3826" stroke-width="1" /><line x1="0" y1="768" x2="1024" y2="768" stroke="#2f3826" stroke-width="1" /><line x1="832" y1="0" x2="832" y2="1024" stroke="#2f3826" stroke-width="1" /><line x1="0" y1="832" x2="1024" y2="832" stroke="#2f3826" stroke-width="1" /><line x1="896" y1="0" x2="896" y2="1024" stroke="#2f3826" stroke-width="1" /><line x1="0" y1="896" x2="1024" y2="896" stroke="#2f3826" stroke-width="1" /><line x1="960" y1="0" x2="960" y2="1024" stroke="#2f3826" stroke-width="1" /><line x1="0" y1="960" x2="1024" y2="960" stroke="#2f3826" stroke-width="1" /><line x1="1024" y1="0" x2="1024" y2="1024" stroke="#2f3826" stroke-width="1" /><line x1="0" y1="1024" x2="1024" y2="1024" stroke="#2f3826" stroke-width="1" /></g>
  <g><line x1="403.3" y1="647.7" x2="215.6" y2="359.7" stroke="#5c6b47" stroke-width="22" stroke-linecap="round" opacity="0.55" /><line x1="215.6" y1="359.7" x2="442.6" y2="636.4" stroke="#5c6b47" stroke-width="22" stroke-linecap="round" opacity="0.55" /><line x1="442.6" y1="636.4" x2="377.2" y2="476.1" stroke="#5c6b47" stroke-width="22" stroke-linecap="round" opacity="0.55" /><line x1="377.2" y1="476.1" x2="787.5" y2="660.4" stroke="#5c6b47" stroke-width="22" stroke-linecap="round" opacity="0.55" /><line x1="787.5" y1="660.4" x2="310.0" y2="798.3" stroke="#5c6b47" stroke-width="22" stroke-linecap="round" opacity="0.55" /><line x1="310.0" y1="798.3" x2="602.6" y2="794.9" stroke="#5c6b47" stroke-width="22" stroke-linecap="round" opacity="0.55" /><line x1="602.6" y1="794.9" x2="476.7" y2="518.7" stroke="#5c6b47" stroke-width="22" stroke-linecap="round" opacity="0.55" /><line x1="476.7" y1="518.7" x2="654.7" y2="501.1" stroke="#5c6b47" stroke-width="22" stroke-linecap="round" opacity="0.55" /></g>
  <g><rect x="334.2" y="554.3" width="138.3" height="186.7" fill="#41502f" stroke="#1a1f15" stroke-width="3" rx="4" transform="rotate(-1.7 403.3 647.7)" /><rect x="142.4" y="295.5" width="146.3" height="128.3" fill="#3a4530" stroke="#1a1f15" stroke-width="3" rx="4" transform="rotate(-0.6 215.6 359.7)" /><rect x="325.4" y="546.8" width="234.4" height="179.0" fill="#41502f" stroke="#1a1f15" stroke-width="3" rx="4" transform="rotate(-1.9 442.6 636.4)" /><rect x="267.4" y="382.5" width="219.6" height="187.1" fill="#4a5a34" stroke="#1a1f15" stroke-width="3" rx="4" transform="rotate(2.9 377.2 476.1)" /><rect x="711.3" y="611.4" width="152.4" height="98.0" fill="#374229" stroke="#1a1f15" stroke-width="3" rx="4" transform="rotate(-2.8 787.5 660.4)" /><rect x="208.1" y="700.5" width="203.8" height="195.6" fill="#3a4530" stroke="#1a1f15" stroke-width="3" rx="4" transform="rotate(1.5 310.0 798.3)" /><rect x="536.9" y="735.2" width="131.4" height="119.3" fill="#3a4530" stroke="#1a1f15" stroke-width="3" rx="4" transform="rotate(-0.6 602.6 794.9)" /><rect x="363.8" y="436.5" width="225.7" height="164.4" fill="#3a4530" stroke="#1a1f15" stroke-width="3" rx="4" transform="rotate(-2.3 476.7 518.7)" /><rect x="578.1" y="384.8" width="153.3" height="232.6" fill="#4a5a34" stroke="#1a1f15" stroke-width="3" rx="4" transform="rotate(0.1 654.7 501.1)" /></g>
  <g><circle cx="476.7" cy="518.7" r="46" fill="none" stroke="#c46a2c" stroke-width="6" opacity="0.85" /><circle cx="602.6" cy="794.9" r="46" fill="none" stroke="#2f6fae" stroke-width="6" opacity="0.85" /></g>
</svg>